<?xml version="1.0" standalone="no"?><!DOCTYPE svg PUBLIC "-//W3C//DTD SVG 1.1//EN" "http://www.w3.org/Graphics/SVG/1.1/DTD/svg11.dtd"><svg t="1761958263708" class="icon" viewBox="0 0 1024 1024" version="1.1" xmlns="http://www.w3.org/2000/svg" p-id="738" xmlns:xlink="http://www.w3.org/1999/xlink" width="200" height="200"><path d="M825.9 255.4H721.2L530.8 105.8c-10.2-8-24.4-8-34.6 0L305.9 255.4h-109c-55.2 0-100 44.8-100 100v471.7c0 55.2 44.8 100 100 100h629c55.2 0 100-44.8 100-100V355.4c0-55.2-44.8-100-100-100z m-312.4-91.9l117 91.9h-234l117-91.9z m356.4 663.6c0 24.3-19.7 44-44 44h-629c-24.3 0-44-19.7-44-44V355.4c0-24.3 19.7-44 44-44h37.7l-19.1 15c-12.2 9.6-14.3 27.2-4.7 39.3 5.5 7 13.7 10.7 22 10.7 6.1 0 12.1-2 17.3-6l75.2-59.1h376.6l75.1 59c12.2 9.6 29.8 7.4 39.3-4.7 9.6-12.2 7.4-29.8-4.7-39.3l-19.1-15h33.4c24.3 0 44 19.7 44 44v471.8z" fill="#1296db" p-id="739"></path><path d="M736.4 464.4h-450c-15.5 0-28 12.5-28 28s12.5 28 28 28h450c15.5 0 28-12.5 28-28s-12.5-28-28-28zM486.4 662.1h-200c-15.5 0-28 12.5-28 28s12.5 28 28 28h200c15.5 0 28-12.5 28-28s-12.5-28-28-28z" fill="#1296db" p-id="740"></path></svg>