<?xml version="1.0" standalone="no"?><!DOCTYPE svg PUBLIC "-//W3C//DTD SVG 1.1//EN" "http://www.w3.org/Graphics/SVG/1.1/DTD/svg11.dtd"><svg t="1761974393247" class="icon" viewBox="0 0 1024 1024" version="1.1" xmlns="http://www.w3.org/2000/svg" p-id="31885" xmlns:xlink="http://www.w3.org/1999/xlink" width="128" height="128"><path d="M293.333 440.96H157.44a21.333 21.333 0 0 1-19.627-13.227 21.333 21.333 0 0 1 4.48-22.4l82.134-82.133H137.6v-42.667h138.453a21.333 21.333 0 0 1 19.627 13.227 21.333 21.333 0 0 1-4.693 23.253l-82.134 81.28h85.334z" fill="#fbebec" p-id="31886"></path><path d="M490.667 854.827A341.333 341.333 0 0 1 157.653 595.2a21.333 21.333 0 0 1 4.054-19.2 21.333 21.333 0 0 1 17.066-7.893h3.84a219.52 219.52 0 0 0 220.8-218.027 217.6 217.6 0 0 0-41.173-128 21.333 21.333 0 0 1-2.987-18.773 21.333 21.333 0 0 1 13.014-13.654A341.333 341.333 0 0 1 832 512a336.427 336.427 0 0 1-13.653 95.787l-40.96-11.947a300.16 300.16 0 0 0-286.72-384 288 288 0 0 0-77.227 10.453 259.2 259.2 0 0 1 33.493 128 261.973 261.973 0 0 1-240.213 260.48 298.667 298.667 0 0 0 316.8 199.894l4.693 42.666a330.88 330.88 0 0 1-37.546 1.494z" fill="#fbebec" p-id="31887"></path><path d="M768 854.827H537.387a138.88 138.88 0 0 1-23.894-275.84 139.947 139.947 0 0 1 279.254 0A138.88 138.88 0 0 1 768 854.827z m-114.987-364.16a97.28 97.28 0 0 0-97.28 97.066 16.64 16.64 0 0 0 0 3.414v4.48l2.987 23.04h-22.827a96.427 96.427 0 0 0 1.494 192H768a96.427 96.427 0 0 0 1.707-192h-23.04l2.773-21.334v-4.906a16.427 16.427 0 0 0 0-3.2 97.28 97.28 0 0 0-96.427-98.56z" fill="#fbebec" p-id="31888"></path></svg>